# xmcd
#
# Track frame offsets:
# 150
# 14907
# 30692
# 46680
# 61859
# 79858
# 99689
# 113951
# 135465
# 148105
# 163069
#
# Disc length: 2367 seconds
#
#
# Revision: 0
# Processed by: cddbd v1.5.2PL0 Copyright (c) Steve Scherf et al.
# Submitted via: FreeRIP 2.93 
#
DISCID=95093d0b
DTITLE=Law Wayne - Fall And Rise
DYEAR=2008
DGENRE=Country
TTITLE0=I would if I could
TTITLE1=22 hours a day
TTITLE2=It's just me, lovin' you
TTITLE3=Time for us
TTITLE4=I needed you more
TTITLE5=It just keeps getting better
TTITLE6=Friend
TTITLE7=The bigger they love (the harder they fall)
TTITLE8=Three ring circus
TTITLE9=Crank the hank
TTITLE10=Second time around
EXTD=
EXTT0=
EXTT1=
EXTT2=
EXTT3=
EXTT4=
EXTT5=
EXTT6=
EXTT7=
EXTT8=
EXTT9=
EXTT10=
PLAYORDER=
